<svg width="21" height="21" viewBox="0 0 21 21" fill="none" xmlns="http://www.w3.org/2000/svg">
<path d="M2.62502 16.625L18.375 16.625C18.5345 16.6245 18.6908 16.5805 18.8271 16.4978C18.9634 16.4151 19.0746 16.2968 19.1487 16.1555C19.2228 16.0143 19.2569 15.8556 19.2475 15.6964C19.238 15.5372 19.1854 15.3836 19.0951 15.2522L11.2201 3.87715C10.8938 3.40553 10.108 3.40553 9.78076 3.87715L1.90577 15.2522C1.81461 15.3834 1.76116 15.537 1.75121 15.6965C1.74126 15.8559 1.7752 16.015 1.84934 16.1566C1.92348 16.2981 2.03498 16.4166 2.17173 16.4992C2.30849 16.5817 2.46526 16.6253 2.62502 16.625Z" fill="#003ADB"/>
</svg>
